<?xml version="1.0" encoding="UTF-8"?>
<svg version="1.1" xmlns="http://www.w3.org/2000/svg" width="500" height="500">
<path d="M0 0 C165 0 330 0 500 0 C500 165 500 330 500 500 C335 500 170 500 0 500 C0 335 0 170 0 0 Z " fill="#FEFEFE" transform="translate(0,0)"/>
<path d="M0 0 C9.27618969 -0.06994813 18.55228661 -0.12303632 27.82868385 -0.15543652 C32.13751257 -0.1709981 36.44615897 -0.19205927 40.75488281 -0.22631836 C44.92408376 -0.25925526 49.09311094 -0.2769242 53.2624321 -0.28463173 C54.84180812 -0.29011438 56.42117617 -0.30081769 58.00047684 -0.31719017 C74.50492749 -0.48126383 89.39049667 1.11838829 101.953125 12.79296875 C107.14952147 18.3959535 109.52125251 24.60626254 111 32 C111.33 31.67 111.66 31.34 112 31 C113.7872057 30.84864056 115.58161876 30.77824222 117.375 30.75 C118.35210937 30.72421875 119.32921875 30.6984375 120.3359375 30.671875 C123.47525244 31.05853549 124.0469339 31.6053505 126 34 C126.7043457 35.84326172 126.7043457 35.84326172 127.17578125 37.9296875 C127.36060059 38.71351807 127.54541992 39.49734863 127.73583984 40.30493164 C127.9261377 41.1530542 128.11643555 42.00117676 128.3125 42.875 C128.7455984 44.70516334 129.181896 46.53457203 129.62109375 48.36328125 C129.84651855 49.30252441 130.07194336 50.24176758 130.30419922 51.20947266 C131.38085732 55.5274383 132.62357501 59.79251883 133.875 64.0625 C138.68431404 80.58999551 142.84560989 97.29788618 147 114 C148.32 114.33 149.64 114.66 151 115 C151 115.99 151 116.98 151 118 C144.07 118 137.14 118 130 118 C130 117.01 130 116.02 130 115 C130.66 114.67 131.32 114.34 132 114 C132.3273807 108.61544907 131.13197533 104.16335749 129.625 99.0625 C129.40328125 98.28970703 129.1815625 97.51691406 128.953125 96.72070312 C128.53428521 95.26338702 128.11234482 93.80695512 127.68603516 92.35180664 C126.77779889 89.23826928 125.89100359 86.11851257 125 83 C110.15 82.505 110.15 82.505 95 82 C90.90223089 93.07716103 90.90223089 93.07716103 94.453125 99.34375 C95.67970591 101.09057783 96.94744968 102.80906214 98.25 104.5 C98.90444092 105.40854736 99.55888184 106.31709473 100.2331543 107.25317383 C102.12296063 109.86146511 104.05719806 112.4310967 106 115 C106.88076245 116.21944707 107.75775764 117.4416353 108.62890625 118.66796875 C110.68385216 121.50960236 112.802482 124.26761441 115 127 C115.72445312 127.90105469 116.44890625 128.80210937 117.1953125 129.73046875 C122.6742326 136.19254001 128.46856078 140.23428039 136 144 C136 145.98 136 147.96 136 150 C121.80929931 150.47537087 110.38863222 149.55379703 99 140 C94.93709998 135.65524958 91.41317391 130.86289314 88 126 C87.60280762 125.43941895 87.20561523 124.87883789 86.79638672 124.30126953 C84 120.25577282 84 120.25577282 84 118 C81.03 118 78.06 118 75 118 C75 117.01 75 116.02 75 115 C76.32 114.67 77.64 114.34 79 114 C76.99494924 109.0348112 74.6784262 104.57759075 71.8125 100.0625 C70.554375 98.061875 69.29625 96.06125 68 94 C67.67 101.59 67.34 109.18 67 117 C57.76 117 48.52 117 39 117 C38.67 108.09 38.34 99.18 38 90 C35.4940625 94.95 35.4940625 94.95 32.9375 100 C27.24348387 110.04573484 27.24348387 110.04573484 22.25 111.9609375 C17.89516787 112.43390083 14.68530763 112.40554807 11 110 C6.04408438 104.7097899 3.27711937 98.46445464 0 92 C-0.33 100.25 -0.66 108.5 -1 117 C-10.57 117 -20.14 117 -30 117 C-30 89.94 -30 62.88 -30 35 C-21.75 35 -13.5 35 -5 35 C2.68306072 44.35936488 2.68306072 44.35936488 4.484375 48.57421875 C6.96942661 54.05298714 9.95366731 59.08300716 13.125 64.1875 C13.5876123 64.97108887 14.05022461 65.75467773 14.52685547 66.56201172 C15.62867127 68.40918574 16.80693672 70.21040508 18 72 C18.66 72 19.32 72 20 72 C20.42297363 71.26475098 20.84594727 70.52950195 21.28173828 69.77197266 C22.88012946 66.99453344 24.47935093 64.21757435 26.07910156 61.44091797 C26.7659482 60.24839573 27.45248165 59.05569303 28.13867188 57.86279297 C29.79390329 54.98549743 31.45796775 52.11563345 33.15087891 49.26025391 C35.02167303 46.08517902 35.02167303 46.08517902 36.36083984 42.93896484 C37.68345419 40.129718 38.73914908 38.13405249 41 36 C45.53169073 34.79444674 49.72830571 35.05027739 54.375 35.375 C60.624375 35.684375 60.624375 35.684375 67 36 C67 48.54 67 61.08 67 74 C74.99028436 69.7030326 74.99028436 69.7030326 81 64 C81.53625 63.54625 82.0725 63.0925 82.625 62.625 C89.06464634 55.01450887 88.74270716 43.42147259 88.21337891 34.00683594 C87.29858656 25.40318251 83.03458443 19.18248451 76.671875 13.62109375 C69.05626531 9.00051185 61.43067767 8.54926403 52.6953125 8.5234375 C51.53554901 8.50785797 50.37578552 8.49227844 49.18087769 8.47622681 C45.49559189 8.42897995 41.81049107 8.40105952 38.125 8.375 C34.44678429 8.3382903 30.7686681 8.29743905 27.09054565 8.25234985 C24.80994513 8.22552065 22.52927341 8.20400342 20.24856567 8.18881226 C13.45168186 8.12246149 6.75849463 7.72712066 0 7 C0 4.69 0 2.38 0 0 Z " fill="#030303" transform="translate(191,167)"/>
<path d="M0 0 C9.27618969 -0.06994813 18.55228661 -0.12303632 27.82868385 -0.15543652 C32.13751257 -0.1709981 36.44615897 -0.19205927 40.75488281 -0.22631836 C44.92408376 -0.25925526 49.09311094 -0.2769242 53.2624321 -0.28463173 C54.84180812 -0.29011438 56.42117617 -0.30081769 58.00047684 -0.31719017 C74.50492749 -0.48126383 89.39049667 1.11838829 101.953125 12.79296875 C107.14952147 18.3959535 109.52125251 24.60626254 111 32 C111.495 31.505 111.495 31.505 112 31 C113.7872057 30.84864056 115.58161876 30.77824222 117.375 30.75 C118.35210937 30.72421875 119.32921875 30.6984375 120.3359375 30.671875 C123.47525244 31.05853549 124.0469339 31.6053505 126 34 C126.7043457 35.84326172 126.7043457 35.84326172 127.17578125 37.9296875 C127.36060059 38.71351807 127.54541992 39.49734863 127.73583984 40.30493164 C127.9261377 41.1530542 128.11643555 42.00117676 128.3125 42.875 C128.7455984 44.70516334 129.181896 46.53457203 129.62109375 48.36328125 C129.84651855 49.30252441 130.07194336 50.24176758 130.30419922 51.20947266 C131.38085732 55.5274383 132.62357501 59.79251883 133.875 64.0625 C138.68431404 80.58999551 142.84560989 97.29788618 147 114 C148.32 114.33 149.64 114.66 151 115 C151 115.99 151 116.98 151 118 C144.07 118 137.14 118 130 118 C130 117.01 130 116.02 130 115 C130.66 114.67 131.32 114.34 132 114 C132.3273807 108.61544907 131.13197533 104.16335749 129.625 99.0625 C129.40328125 98.28970703 129.1815625 97.51691406 128.953125 96.72070312 C128.53428521 95.26338702 128.11234482 93.80695512 127.68603516 92.35180664 C126.77779889 89.23826928 125.89100359 86.11851257 125 83 C110.15 82.505 110.15 82.505 95 82 C90.90223089 93.07716103 90.90223089 93.07716103 94.453125 99.34375 C95.67970591 101.09057783 96.94744968 102.80906214 98.25 104.5 C98.90444092 105.40854736 99.55888184 106.31709473 100.2331543 107.25317383 C102.12296063 109.86146511 104.05719806 112.4310967 106 115 C106.88076245 116.21944707 107.75775764 117.4416353 108.62890625 118.66796875 C110.68385216 121.50960236 112.802482 124.26761441 115 127 C115.72445312 127.90105469 116.44890625 128.80210937 117.1953125 129.73046875 C122.6742326 136.19254001 128.46856078 140.23428039 136 144 C136 145.98 136 147.96 136 150 C121.80929931 150.47537087 110.38863222 149.55379703 99 140 C94.93709998 135.65524958 91.41317391 130.86289314 88 126 C87.60280762 125.43941895 87.20561523 124.87883789 86.79638672 124.30126953 C84 120.25577282 84 120.25577282 84 118 C81.03 118 78.06 118 75 118 C75 117.01 75 116.02 75 115 C76.32 114.67 77.64 114.34 79 114 C76.84409178 108.60318401 74.21801119 103.78852228 71.125 98.875 C70.70347656 98.18535156 70.28195312 97.49570312 69.84765625 96.78515625 C67.83181243 93.56103907 65.95874601 90.95897974 63.2421875 88.2578125 C60.01214246 85.00525843 60.01214246 85.00525843 60 82 C63.23479217 76.31083754 68.22426863 73.03021636 73.921875 70.15234375 C76.8009623 68.55585737 78.81770037 66.43904076 81 64 C81.53625 63.54625 82.0725 63.0925 82.625 62.625 C89.06464634 55.01450887 88.74270716 43.42147259 88.21337891 34.00683594 C87.29858656 25.40318251 83.03458443 19.18248451 76.671875 13.62109375 C69.05626531 9.00051185 61.43067767 8.54926403 52.6953125 8.5234375 C51.53554901 8.50785797 50.37578552 8.49227844 49.18087769 8.47622681 C45.49559189 8.42897995 41.81049107 8.40105952 38.125 8.375 C34.44678429 8.3382903 30.7686681 8.29743905 27.09054565 8.25234985 C24.80994513 8.22552065 22.52927341 8.20400342 20.24856567 8.18881226 C13.45168186 8.12246149 6.75849463 7.72712066 0 7 C0 4.69 0 2.38 0 0 Z " fill="#601AEA" transform="translate(191,167)"/>
<path d="M0 0 C0.97710937 -0.02578125 1.95421875 -0.0515625 2.9609375 -0.078125 C6.10025244 0.30853549 6.6719339 0.8553505 8.625 3.25 C9.3293457 5.09326172 9.3293457 5.09326172 9.80078125 7.1796875 C9.98560059 7.96351807 10.17041992 8.74734863 10.36083984 9.55493164 C10.5511377 10.4030542 10.74143555 11.25117676 10.9375 12.125 C11.3705984 13.95516334 11.806896 15.78457203 12.24609375 17.61328125 C12.58423096 19.022146 12.58423096 19.022146 12.92919922 20.45947266 C14.00585732 24.7774383 15.24857501 29.04251883 16.5 33.3125 C21.30931404 49.83999551 25.47060989 66.54788618 29.625 83.25 C30.945 83.58 32.265 83.91 33.625 84.25 C33.625 85.24 33.625 86.23 33.625 87.25 C26.695 87.25 19.765 87.25 12.625 87.25 C12.625 86.26 12.625 85.27 12.625 84.25 C13.285 83.92 13.945 83.59 14.625 83.25 C14.9523807 77.86544907 13.75697533 73.41335749 12.25 68.3125 C12.02828125 67.53970703 11.8065625 66.76691406 11.578125 65.97070312 C11.15928521 64.51338702 10.73734482 63.05695512 10.31103516 61.60180664 C9.40279889 58.48826928 8.51600359 55.36851257 7.625 52.25 C-7.225 51.755 -7.225 51.755 -22.375 51.25 C-23.365 54.55 -24.355 57.85 -25.375 61.25 C-26.365 60.92 -27.355 60.59 -28.375 60.25 C-27.71466097 54.90725697 -26.08672472 50.18783462 -24.1875 45.1875 C-23.90841797 44.39794922 -23.62933594 43.60839844 -23.34179688 42.79492188 C-21.28551219 37.37958494 -19.12262512 34.58743944 -14.375 31.25 C-14.66503906 32.10271484 -14.66503906 32.10271484 -14.9609375 32.97265625 C-15.22132813 33.74480469 -15.48171875 34.51695312 -15.75 35.3125 C-16.00523437 36.06660156 -16.26046875 36.82070312 -16.5234375 37.59765625 C-17.54900654 40.7919745 -18.45333371 44.02416798 -19.375 47.25 C-10.795 47.25 -2.215 47.25 6.625 47.25 C4.45685365 39.51782294 4.45685365 39.51782294 2.2878418 31.78588867 C1.69990231 29.68762077 1.11370687 27.58886377 0.52880859 25.48974609 C-0.06790845 23.35078468 -0.66905915 21.21305459 -1.27490234 19.07666016 C-1.54898926 18.09874512 -1.82307617 17.12083008 -2.10546875 16.11328125 C-2.35063232 15.24614502 -2.5957959 14.37900879 -2.84838867 13.4855957 C-3.375 11.25 -3.375 11.25 -3.375 8.25 C-4.365 8.58 -5.355 8.91 -6.375 9.25 C-6.47265625 3.09765625 -6.47265625 3.09765625 -6.375 1.25 C-4.64280072 -0.48219928 -2.35473192 0.03708239 0 0 Z " fill="#070707" transform="translate(308.375,197.75)"/>
<path d="M0 0 C0.66 0 1.32 0 2 0 C3.42910019 5.07064511 4.85312887 10.14267645 6.27246094 15.21606445 C6.75609169 16.94204197 7.24110997 18.66763131 7.72753906 20.39282227 C8.42617443 22.87155205 9.11982034 25.35163151 9.8125 27.83203125 C10.14060669 28.98998955 10.14060669 28.98998955 10.4753418 30.17134094 C11.31770939 33.2029109 12 35.83747895 12 39 C3.42 39 -5.16 39 -14 39 C-13.20206206 33.41443443 -12.74506167 30.93942684 -10.375 26.25 C-6.27435152 17.7401591 -3.17256838 8.88882325 0 0 Z " fill="#F8F8F9" transform="translate(303,206)"/>
<path d="M0 0 C3.5386994 1.65139305 4.81070153 2.71605229 7 6 C7.562249 14.85542169 7.562249 14.85542169 5 18 C0.95374707 20.57488823 -2.22108917 21.79648514 -7 21 C-10.51580725 18.94358444 -12.37917556 17.70569948 -13.7734375 13.875 C-14.36295256 10.582614 -14.60165277 8.13044914 -13 5.12109375 C-8.98132144 0.15754731 -6.22622252 -0.42211678 0 0 Z " fill="#5C16E6" transform="translate(236,235)"/>
<path d="M0 0 C1 2 1 2 0.37915039 3.97119141 C0.03875732 4.75671387 -0.30163574 5.54223633 -0.65234375 6.3515625 C-1.01650391 7.20234375 -1.38066406 8.053125 -1.75585938 8.9296875 C-2.14580078 9.81914062 -2.53574219 10.70859375 -2.9375 11.625 C-3.32357422 12.5221875 -3.70964844 13.419375 -4.10742188 14.34375 C-5.06470725 16.56559754 -6.02914277 18.78405708 -7 21 C-10.16687653 17.14785397 -12.60857086 13.35581736 -15 9 C-14.16855469 8.51789063 -13.33710938 8.03578125 -12.48046875 7.5390625 C-11.39378906 6.90742188 -10.30710937 6.27578125 -9.1875 5.625 C-8.10855469 4.99851563 -7.02960938 4.37203125 -5.91796875 3.7265625 C-3.91168907 2.53944654 -1.93965941 1.29310627 0 0 Z " fill="#F5F3F9" transform="translate(287,235)"/>
<path d="M0 0 C1.35432675 1.31200404 2.68733482 2.64631404 4 4 C4 4.33 4 4.66 4 5 C1.36 5 -1.28 5 -4 5 C-4 4.01 -4 3.02 -4 2 C-2.68 1.34 -1.36 0.68 0 0 Z " fill="#050408" transform="translate(270,280)"/>
</svg>
